# xmcd
#
# Track frame offsets:
#	175
#	23037
#	43550
#	73300
#	94600
#	114462
#	135012
#	153462
#	170712
#	190487
#	213500
#	230050
#	250250
#	270700
#	301562
#	325625
#
# Disc length: 4670 seconds
#
# Revision: 0
# Processed by: cddbd v1.4PL0 Copyright (c) Steve Scherf et al.
# Submitted via: dBpowerAMP V4.0
#
DISCID=d8123c10
DTITLE=Chris Rea - Grand Collection
DYEAR=1997
DGENRE=Other
TTITLE0=Looking For The Summer
TTITLE1=Josephine
TTITLE2=Auberge
TTITLE3=Candles
TTITLE4=Working On It
TTITLE5=Your Warm And Tender Love
TTITLE6=Windy Town
TTITLE7=Loving You
TTITLE8=Soft Top, Hard Shoulder
TTITLE9=90's Blues
TTITLE10=I Just Wanna Be With You
TTITLE11=That's What They Always Say
TTITLE12=The Road To Hell (part II)
TTITLE13=On The Beach
TTITLE14=God's Great Banana Skin
TTITLE15=And You My Love
EXTD=
EXTT0=
EXTT1=
EXTT2=
EXTT3=
EXTT4=
EXTT5=
EXTT6=
EXTT7=
EXTT8=
EXTT9=
EXTT10=
EXTT11=
EXTT12=
EXTT13=
EXTT14=
EXTT15=
PLAYORDER=
